<svg width="1440" height="144" viewBox="0 0 1440 144" fill="none" xmlns="http://www.w3.org/2000/svg">
<rect x="-7" y="24.9999" width="1450" height="185" fill="#C2B4FF"/>
<path d="M456.099 48.3491C174.767 26.1011 86.6896 40.172 -3.40064 10.9171C-12.2448 8.04515 -21.785 7.74952 -30.6294 10.6206C-46.7353 15.8488 -58.0071 30.3926 -59.0519 47.2934L-66.3979 166.125C-68.5366 200.721 -41.0004 229.928 -6.33863 229.827L1463.18 225.573C1480.87 225.522 1501 226.769 1502.53 209.152C1504.05 191.63 1503.94 160.407 1501.27 107.89C1500.29 88.6571 1490.22 70.8105 1472.82 62.5517C1303.91 -17.6325 920.909 -5.44657 720.37 22.6993L719.962 22.7566C667.606 30.1048 508.239 52.4724 456.099 48.3491Z" fill="#7657F4"/>
</svg>
